<svg xmlns="http://www.w3.org/2000/svg" width="760" height="450" viewBox="0 0 760 450"><rect width="100%" height="100%" fill="white"/><text x="380" y="30" text-anchor="middle" font-family="Arial" font-size="20" font-weight="bold">Kaplan-Meier Curve by Serum Creatinine</text><g font-family="Arial"><line x1="75" y1="395" x2="735" y2="395" stroke="#ddd"/><line x1="75" y1="310" x2="735" y2="310" stroke="#ddd"/><line x1="75" y1="225" x2="735" y2="225" stroke="#ddd"/><line x1="75" y1="140" x2="735" y2="140" stroke="#ddd"/><line x1="75" y1="55" x2="735" y2="55" stroke="#ddd"/><line x1="75" y1="55" x2="75" y2="395" stroke="#222"/><line x1="75" y1="395" x2="735" y2="395" stroke="#222"/><text x="65" y="60" text-anchor="end" font-size="12">1.00</text><text x="65" y="145" text-anchor="end" font-size="12">0.75</text><text x="65" y="230" text-anchor="end" font-size="12">0.50</text><text x="65" y="315" text-anchor="end" font-size="12">0.25</text><text x="75" y="420" text-anchor="middle" font-size="12">0</text><text x="295" y="420" text-anchor="middle" font-size="12">100</text><text x="515" y="420" text-anchor="middle" font-size="12">200</text><text x="735" y="420" text-anchor="middle" font-size="12">300</text><text x="380" y="440" text-anchor="middle" font-size="13">Follow-up time (days)</text><path d="M75,55 L108,73 L159,91 L218,107 L295,119 L405,133 L506,142 L592,156" fill="none" stroke="#222" stroke-width="3"/><path d="M75,55 L108,91 L143,136 L207,168 L255,189 L323,226 L453,254 L506,286 L605,316" fill="none" stroke="#222" stroke-width="3" stroke-dasharray="8 5"/><line x1="470" y1="75" x2="505" y2="75" stroke="#222" stroke-width="3"/><text x="515" y="79" font-size="12">Creatinine &lt;=1.5 mg/dL</text><line x1="470" y1="99" x2="505" y2="99" stroke="#222" stroke-width="3" stroke-dasharray="8 5"/><text x="515" y="103" font-size="12">Creatinine &gt;1.5 mg/dL</text></g></svg>