<svg xmlns="http://www.w3.org/2000/svg" width="760" height="450" viewBox="0 0 760 450"><rect width="100%" height="100%" fill="white"/><text x="380" y="30" text-anchor="middle" font-family="Arial" font-size="20" font-weight="bold">Kaplan-Meier Curve by Ejection Fraction</text><g font-family="Arial"><line x1="75" y1="395" x2="735" y2="395" stroke="#ddd"/><line x1="75" y1="310" x2="735" y2="310" stroke="#ddd"/><line x1="75" y1="225" x2="735" y2="225" stroke="#ddd"/><line x1="75" y1="140" x2="735" y2="140" stroke="#ddd"/><line x1="75" y1="55" x2="735" y2="55" stroke="#ddd"/><line x1="75" y1="55" x2="75" y2="395" stroke="#222"/><line x1="75" y1="395" x2="735" y2="395" stroke="#222"/><text x="65" y="60" text-anchor="end" font-size="12">1.00</text><text x="65" y="145" text-anchor="end" font-size="12">0.75</text><text x="65" y="230" text-anchor="end" font-size="12">0.50</text><text x="65" y="315" text-anchor="end" font-size="12">0.25</text><text x="75" y="420" text-anchor="middle" font-size="12">0</text><text x="295" y="420" text-anchor="middle" font-size="12">100</text><text x="515" y="420" text-anchor="middle" font-size="12">200</text><text x="735" y="420" text-anchor="middle" font-size="12">300</text><text x="380" y="440" text-anchor="middle" font-size="13">Follow-up time (days)</text><path d="M75,55 L108,70 L148,93 L218,102 L295,110 L405,119 L506,142" fill="none" stroke="#222" stroke-width="3"/><path d="M75,55 L108,81 L165,112 L233,141 L319,162 L405,178 L530,207 L605,227" fill="none" stroke="#222" stroke-width="3" stroke-dasharray="8 5"/><line x1="480" y1="75" x2="515" y2="75" stroke="#222" stroke-width="3"/><text x="525" y="79" font-size="12">Ejection fraction &gt;=40%</text><line x1="480" y1="99" x2="515" y2="99" stroke="#222" stroke-width="3" stroke-dasharray="8 5"/><text x="525" y="103" font-size="12">Ejection fraction &lt;40%</text></g></svg>