<svg xmlns="http://www.w3.org/2000/svg" width="760" height="450" viewBox="0 0 760 450"><rect width="100%" height="100%" fill="white"/><text x="380" y="30" text-anchor="middle" font-family="Arial" font-size="20" font-weight="bold">Kaplan-Meier Survival Curve - Heart Failure</text><g font-family="Arial"><line x1="75" y1="395" x2="735" y2="395" stroke="#ddd"/><text x="65" y="400" text-anchor="end" font-size="12">0.00</text><line x1="75" y1="310" x2="735" y2="310" stroke="#ddd"/><text x="65" y="315" text-anchor="end" font-size="12">0.25</text><line x1="75" y1="225" x2="735" y2="225" stroke="#ddd"/><text x="65" y="230" text-anchor="end" font-size="12">0.50</text><line x1="75" y1="140" x2="735" y2="140" stroke="#ddd"/><text x="65" y="145" text-anchor="end" font-size="12">0.75</text><line x1="75" y1="55" x2="735" y2="55" stroke="#ddd"/><text x="65" y="60" text-anchor="end" font-size="12">1.00</text><line x1="75" y1="55" x2="75" y2="395" stroke="#222"/><line x1="75" y1="395" x2="735" y2="395" stroke="#222"/><text x="75" y="420" text-anchor="middle" font-size="12">0</text><text x="185" y="420" text-anchor="middle" font-size="12">50</text><text x="295" y="420" text-anchor="middle" font-size="12">100</text><text x="405" y="420" text-anchor="middle" font-size="12">150</text><text x="515" y="420" text-anchor="middle" font-size="12">200</text><text x="625" y="420" text-anchor="middle" font-size="12">250</text><text x="735" y="420" text-anchor="middle" font-size="12">300</text><text x="380" y="440" text-anchor="middle" font-size="13">Follow-up time (days)</text><text x="18" y="225" transform="rotate(-90 18 225)" text-anchor="middle" font-size="13">Survival probability</text><path d="M75,55 L88.2,57.3 L97,68.6 L103.6,72.1 L119,78.9 L127.8,82.4 L136.6,89.3 L141,95 L147.6,99.7 L163,103.1 L167.4,105.5 L174,111.3 L196,113.6 L209.2,118.3 L218,121.9 L233.4,125.4 L244.4,129 L268.6,132.9 L286.2,138.6 L314.8,141.7 L328,146.6 L358.8,150.3 L405,156 L431.4,160.1 L453.4,168.3 L499.6,175.1 L530.4,183.5 L605.2,199.3" fill="none" stroke="#222" stroke-width="2.5"/></g></svg>